<?xml version="1.0" standalone="no"?>
<!DOCTYPE svg PUBLIC "-//W3C//DTD SVG 20010904//EN"
 "http://www.w3.org/TR/2001/REC-SVG-20010904/DTD/svg10.dtd">
<svg version="1.0" xmlns="http://www.w3.org/2000/svg"
 width="512.000000pt" height="512.000000pt" viewBox="0 0 512.000000 512.000000"
 preserveAspectRatio="xMidYMid meet">
<metadata>
Created by potrace 1.14, written by Peter Selinger 2001-2017
</metadata>
<g transform="translate(0.000000,512.000000) scale(0.100000,-0.100000)"
fill="#000000" stroke="none">
<path d="M151 5106 c-50 -18 -111 -73 -131 -120 -18 -39 -18 -106 -19 -1326
-1 -835 3 -1298 9 -1321 16 -57 63 -114 117 -140 46 -22 58 -23 288 -25 132
-1 241 -2 242 -3 2 0 -11 -27 -27 -60 -17 -32 -30 -66 -30 -74 0 -9 -19 -24
-44 -36 -77 -34 -90 -74 -67 -211 7 -41 15 -87 17 -103 2 -15 6 -39 9 -55 4
-22 29 -169 50 -297 3 -16 8 -46 11 -65 4 -19 8 -44 10 -55 7 -46 13 -82 19
-120 10 -61 14 -88 20 -115 3 -14 7 -38 10 -55 12 -86 16 -112 21 -135 3 -13
8 -40 10 -60 2 -19 7 -46 9 -60 13 -66 45 -262 51 -305 2 -16 8 -52 14 -80 5
-27 11 -61 14 -75 15 -88 21 -108 44 -139 13 -18 43 -42 66 -52 38 -17 76 -19
609 -19 466 0 574 3 601 14 43 18 93 70 101 104 11 53 24 129 60 352 8 52 76
456 81 480 2 14 7 41 10 60 3 19 14 86 25 148 11 62 22 129 25 149 5 39 71
439 80 483 15 76 15 126 1 154 -18 34 -63 66 -94 66 -14 0 -24 8 -29 23 -4 12
-21 45 -39 72 -17 28 -32 54 -33 60 -1 6 106 10 303 10 168 0 305 -1 305 -3 0
-1 -14 -21 -31 -45 -17 -23 -37 -57 -44 -75 -8 -18 -22 -35 -32 -38 -58 -19
-75 -30 -94 -61 -21 -34 -23 -74 -5 -163 5 -23 58 -340 70 -420 3 -19 8 -46
10 -60 10 -54 86 -512 91 -547 3 -21 10 -60 15 -88 6 -27 12 -68 15 -90 3 -22
10 -62 15 -90 5 -27 12 -63 14 -80 19 -117 27 -163 31 -185 3 -14 8 -45 11
-70 10 -74 59 -132 126 -150 24 -7 245 -10 611 -8 l574 3 36 28 c20 15 44 42
53 59 15 30 39 149 70 355 3 21 7 45 9 53 3 8 7 33 10 55 4 22 13 81 21 130 8
50 17 101 19 115 2 14 18 106 35 205 45 260 46 285 20 313 -11 12 -25 22 -31
22 -6 0 -7 15 -3 38 11 62 12 69 19 116 6 39 11 46 30 46 38 0 57 34 76 137
17 89 29 165 32 203 4 56 -44 121 -96 131 -12 3 -25 23 -37 56 -10 29 -25 62
-34 75 -9 12 -16 25 -16 28 0 3 109 5 243 5 233 1 244 2 290 24 54 26 101 83
117 142 7 24 9 481 8 1331 -3 1128 -5 1296 -18 1318 -24 40 -62 80 -100 103
l-35 22 -1844 3 c-2007 2 -1882 6 -1896 -51 -6 -21 -11 -22 -101 -22 -94 0
-96 0 -110 27 -8 15 -23 32 -34 38 -28 15 -785 12 -829 -4z m469 -526 l0 -80
-80 0 -80 0 0 80 0 80 80 0 80 0 0 -80z m4040 0 l0 -80 -80 0 -80 0 0 80 0 80
80 0 80 0 0 -80z m-4040 -622 l0 -78 -27 -1 c-30 -1 -100 -1 -120 0 -9 1 -13
24 -13 81 l0 79 80 -1 80 -1 0 -79z m4040 0 c0 -55 -4 -78 -12 -79 -7 0 -43
-1 -81 -2 l-67 -2 0 82 0 81 80 -1 80 0 0 -79z m-4042 -622 l-3 -81 -75 0 -75
0 -3 69 c-2 38 -1 75 2 81 3 9 29 12 81 12 l76 0 -3 -81z m4040 -1 l3 -80 -78
0 -78 0 -3 82 -3 82 78 -2 78 -2 3 -80z m-4040 -620 l-3 -80 -75 0 -75 0 -3
69 c-2 38 -1 74 1 81 3 7 33 11 81 10 l77 0 -3 -80z m4037 0 l0 -80 -75 0 -75
0 -3 80 -3 81 78 -1 78 0 0 -80z"/>
</g>
</svg>
